<?xml version="1.0" encoding="utf-8"?>
<!-- Generator: Adobe Illustrator 18.0.0, SVG Export Plug-In . SVG Version: 6.00 Build 0)  -->
<!DOCTYPE svg PUBLIC "-//W3C//DTD SVG 1.1//EN" "http://www.w3.org/Graphics/SVG/1.1/DTD/svg11.dtd">
<svg version="1.1" id="Layer_1" xmlns="http://www.w3.org/2000/svg" xmlns:xlink="http://www.w3.org/1999/xlink" x="0px" y="0px"
	 width="346.9px" height="308.9px" viewBox="124.2 265.6 346.9 308.9" enable-background="new 124.2 265.6 346.9 308.9"
	 xml:space="preserve">
<g>
	<path fill="#61DAFB" d="M471.1,420.1c0-23-28.8-44.8-72.9-58.3c10.2-45,5.7-80.7-14.3-92.2c-4.6-2.7-10-4-15.8-4v15.8
		c3.3,0,5.9,0.6,8.1,1.8c9.6,5.5,13.8,26.5,10.5,53.5c-0.8,6.6-2.1,13.6-3.6,20.8c-13.9-3.4-29-6-44.9-7.7
		c-9.5-13.1-19.4-25-29.4-35.4c23.1-21.4,44.7-33.2,59.4-33.2v-15.8c-19.4,0-44.9,13.9-70.6,37.9c-25.7-23.9-51.2-37.6-70.6-37.6
		v15.8c14.6,0,36.3,11.7,59.4,32.9c-9.9,10.4-19.8,22.2-29.2,35.3c-16,1.7-31.1,4.3-45,7.8c-1.6-7.1-2.8-13.9-3.7-20.5
		c-3.3-27,0.8-48,10.3-53.6c2.1-1.3,4.9-1.8,8.1-1.8V266c-5.9,0-11.3,1.3-16,4c-19.9,11.5-24.3,47.2-14.1,92
		c-44,13.6-72.6,35.3-72.6,58.2c0,23,28.8,44.8,72.9,58.3c-10.2,45-5.7,80.7,14.3,92.2c4.6,2.7,10,4,15.9,4
		c19.4,0,44.9-13.9,70.6-37.9c25.7,23.9,51.2,37.6,70.6,37.6c5.9,0,11.3-1.3,16-4c19.9-11.5,24.3-47.2,14.1-92
		C442.5,464.8,471.1,443,471.1,420.1L471.1,420.1z M379.1,373c-2.6,9.1-5.9,18.5-9.5,27.9c-2.9-5.7-5.9-11.3-9.3-17
		c-3.3-5.7-6.7-11.2-10.2-16.5C360.1,368.9,369.8,370.7,379.1,373L379.1,373z M346.7,448.3c-5.5,9.5-11.2,18.6-17,27
		c-10.5,0.9-21.2,1.4-32,1.4c-10.7,0-21.4-0.5-31.8-1.3c-5.9-8.4-11.6-17.4-17.1-26.9c-5.4-9.3-10.3-18.7-14.7-28.1
		c4.4-9.5,9.3-18.9,14.6-28.2c5.5-9.5,11.2-18.6,17-27c10.5-0.9,21.2-1.4,32-1.4c10.7,0,21.4,0.5,31.8,1.3
		c5.9,8.4,11.6,17.4,17.1,26.9c5.4,9.3,10.3,18.7,14.7,28.1C356.9,429.5,352,439,346.7,448.3L346.7,448.3z M369.5,439.1
		c3.8,9.5,7.1,18.9,9.8,28.1c-9.3,2.3-19,4.2-29.1,5.7c3.5-5.4,6.9-11,10.2-16.8C363.6,450.5,366.6,444.7,369.5,439.1L369.5,439.1z
		 M297.8,514.5c-6.6-6.8-13.2-14.4-19.7-22.6c6.4,0.3,12.9,0.5,19.4,0.5c6.6,0,13.2-0.1,19.7-0.5
		C310.9,500.2,304.3,507.7,297.8,514.5z M245.2,472.9c-10-1.5-19.7-3.3-29-5.6c2.6-9.1,5.9-18.5,9.5-27.9c2.9,5.7,5.9,11.3,9.3,17
		C238.4,462,241.7,467.5,245.2,472.9z M297.5,325.7c6.6,6.8,13.2,14.4,19.7,22.6c-6.4-0.3-12.9-0.5-19.4-0.5
		c-6.6,0-13.2,0.1-19.7,0.5C284.4,340.1,291,332.5,297.5,325.7z M245.1,367.4c-3.5,5.4-6.9,11-10.2,16.8c-3.3,5.7-6.3,11.3-9.2,17
		c-3.8-9.5-7.1-18.9-9.8-28.1C225.3,370.8,235,368.9,245.1,367.4L245.1,367.4z M181.2,455.9c-25-10.7-41.2-24.7-41.2-35.8
		c0-11.1,16.2-25.2,41.2-35.8c6.1-2.6,12.7-4.9,19.6-7.1c4,13.9,9.3,28.3,15.9,43.1c-6.5,14.7-11.7,29.1-15.7,42.8
		C193.9,460.9,187.3,458.5,181.2,455.9L181.2,455.9z M219.2,556.9c-9.6-5.5-13.8-26.5-10.5-53.5c0.8-6.6,2.1-13.6,3.6-20.8
		c13.9,3.4,29,6,44.9,7.7c9.5,13.1,19.4,25,29.4,35.4c-23.1,21.4-44.7,33.2-59.4,33.2C224,558.8,221.3,558.2,219.2,556.9
		L219.2,556.9z M386.9,503.1c3.3,27-0.8,48-10.3,53.6c-2.1,1.3-4.9,1.8-8.1,1.8c-14.6,0-36.3-11.7-59.4-32.9
		c9.9-10.4,19.8-22.2,29.2-35.3c16-1.7,31.1-4.3,45-7.8C384.9,489.6,386.1,496.5,386.9,503.1z M414.1,455.9
		c-6.1,2.6-12.7,4.9-19.6,7.1c-4-13.9-9.3-28.3-15.9-43.1c6.5-14.7,11.7-29.1,15.7-42.8c7,2.2,13.6,4.6,19.9,7.2
		c25,10.7,41.2,24.7,41.2,35.8C455.4,431.2,439.2,445.3,414.1,455.9L414.1,455.9z"/>
	<circle fill="#61DAFB" cx="297.6" cy="420.1" r="32.3"/>
	<path fill="#61DAFB" d="M368,265.7"/>
</g>
</svg>
